<svg width="800" height="800" viewBox="0 0 800 800" fill="none" xmlns="http://www.w3.org/2000/svg">
<g clip-path="url(#clip0_2018_395)">
<path fill-rule="evenodd" clip-rule="evenodd" d="M308.333 133.333C308.333 82.7072 349.373 41.6665 400 41.6665C450.627 41.6665 491.667 82.7072 491.667 133.333C491.667 183.959 450.627 225 400 225C349.373 225 308.333 183.959 308.333 133.333Z" fill="white"/>
<path d="M274.103 385.803L201.593 361.634C180.735 354.68 121 306.485 121 284.5C121 251.981 196.651 256.417 228.448 263.231L291.701 276.785C295.218 277.538 296.977 277.915 298.72 278.276C365.533 292.096 434.467 292.096 501.28 278.276C503.023 277.915 504.783 277.538 508.3 276.785L571.55 263.23C603.35 256.417 651.5 193.481 651.5 226C651.5 247.984 662 328.5 598.407 361.634L525.897 385.803C517.133 388.723 512.753 390.183 509.457 392.22C498.237 399.143 492.153 412.033 493.94 425.1C494.467 428.937 496.123 433.247 499.44 441.867L541 549.923C553.37 582.087 529.627 616.657 495.163 616.657C477.543 616.657 461.27 607.217 452.527 591.914L400 499.99L347.473 591.914C338.73 607.217 322.458 616.657 304.835 616.657C270.373 616.657 246.63 582.087 259.001 549.923L300.561 441.867C303.876 433.247 305.534 428.937 306.059 425.1C307.845 412.033 301.762 399.143 290.542 392.22C287.247 390.183 282.866 388.723 274.103 385.803Z" fill="white"/>
<path d="M400 733.327C584.093 733.327 733.333 666.17 733.333 583.327C733.333 525.933 661.697 476.067 556.467 450.847L587.667 531.967C612.633 596.883 564.717 666.653 495.163 666.653C459.6 666.653 426.76 647.597 409.117 616.717L400 600.763L390.883 616.717C373.24 647.597 340.4 666.653 304.835 666.653C235.284 666.653 187.366 596.883 212.334 531.967L243.534 450.847C138.302 476.067 66.6666 525.933 66.6666 583.327C66.6666 666.17 215.905 733.327 400 733.327Z" fill="white"/>
<path d="M770.634 236.669L693.003 123.624L558.457 114.169L632.003 229.279L770.634 236.669Z" fill="white" stroke="white"/>
<path d="M767.5 234L713 328.397" stroke="white" stroke-width="8"/>
</g>
<defs>
<clipPath id="clip0_2018_395">
<rect width="800" height="800" fill="white"/>
</clipPath>
</defs>
</svg>
